<svg id="Camada_1" data-name="Camada 1" xmlns="http://www.w3.org/2000/svg" viewBox="0 0 321.84 117.15"><defs><style>.cls-1{fill:#b70000;}.cls-2,.cls-3,.cls-4,.cls-5,.cls-6,.cls-7,.cls-8{isolation:isolate;font-family:KashimaBrushDemo, Kashima Brush Demo;}.cls-2,.cls-3,.cls-4,.cls-5,.cls-6{font-size:100px;}.cls-2,.cls-3,.cls-4,.cls-5,.cls-6,.cls-7,.cls-8,.cls-9{fill:#fff;}.cls-2{letter-spacing:-0.02em;}.cls-3{letter-spacing:-0.05em;}.cls-4{letter-spacing:-0.01em;}.cls-6{letter-spacing:-0.03em;}.cls-7,.cls-8{font-size:25.51px;}.cls-8{letter-spacing:-0.04em;}.cls-9{stroke:#fff;stroke-miterlimit:10;}</style></defs><title>charlie-branco</title><ellipse class="cls-1" cx="246.61" cy="51" rx="40.9" ry="42.2"/><text class="cls-2" transform="translate(73.49 85.25)">H</text><text class="cls-3" transform="translate(117.78 85.25)">A</text><text class="cls-4" transform="translate(150.1 85.25)">R</text><text class="cls-5" transform="translate(197.42 85.25)">L</text><text class="cls-6" transform="translate(244.88 85.25)">I</text><text class="cls-5" transform="translate(270.12 85.25)">E</text><text class="cls-7" transform="translate(98.18 110.48)"><tspan xml:space="preserve"> str</tspan></text><text class="cls-7" transform="translate(144.49 110.48)">e</text><text class="cls-7" transform="translate(155.48 110.48)">etw</text><text class="cls-7" transform="translate(194.99 110.48)">e</text><text class="cls-8" transform="translate(206.48 110.48)">a</text><text class="cls-7" transform="translate(214.73 110.48)">r</text><path class="cls-9" d="M15.9,86.2c.1-.1-.8-1-2-3.1a20.65,20.65,0,0,1-1.5-3.4,18.87,18.87,0,0,1-.9-3.4,15.11,15.11,0,0,1,.1-5.6,12.71,12.71,0,0,1,2.6-5.5,7.86,7.86,0,0,1,3.2-2.8,6.4,6.4,0,0,1,4.1-.1c2.3.7,3.4,2.4,4.1,2,.3-.2.4-.6.5-1.3a4.08,4.08,0,0,0-.1-1.9,3,3,0,0,0-1.4-1.3,5.83,5.83,0,0,0-4.1-.3l-2.1.4c-.8.2-1.2.5-1.6.2a1.45,1.45,0,0,1,0-2,1.85,1.85,0,0,1,.7-.2c1,.1,1.8-.5,4.4-1.1a22,22,0,0,1,3.7-.7,20.67,20.67,0,0,1,4.3.2,27.59,27.59,0,0,1,2.7.8,5.39,5.39,0,0,1,1.3.7,5.24,5.24,0,0,1,1,1.1,3.79,3.79,0,0,1,.6,2.3c0,.6-.3.9-.2,1a4.12,4.12,0,0,0,2.1-2.5,4.52,4.52,0,0,0-.3-3.6,5.2,5.2,0,0,0-1.9-2,12.81,12.81,0,0,0-3.9-1.3,4.92,4.92,0,0,1-1.7-.6c-.5-.2-.8-.4-.9-.7s.6-.9,1.3-1a1.27,1.27,0,0,1,.6.1c2.2.7,4.4,1,6.6,1.5,2.8.7,2.9.3,4.5,1a8.49,8.49,0,0,1,3.2,2.1,8.67,8.67,0,0,1,1.4,2.7,9.85,9.85,0,0,1,.8,2.8,4.48,4.48,0,0,1,0,2.3,5.14,5.14,0,0,1-1.8,2.6c-1.5,1-3.1.8-3.1,1.2s.9.6,1.7.7a7.52,7.52,0,0,0,4.8-1.4,8.73,8.73,0,0,0,3-4.7,11,11,0,0,0,.3-5.1c-.3-1.5-.7-3.5-2.2-4.5a3,3,0,0,1-1.5-1.6c0-.1-.1-.7.2-.8.6-.4,2,1.2,2.4,1s-.3-1.9-1.5-3.3c-2.3-2.7-5.9-3.1-8.1-3.3a25.48,25.48,0,0,0-7.8.6A76.63,76.63,0,0,0,24,46.5a17.78,17.78,0,0,1-3.9.7c-2,.2-3.6.3-4.8-.7a4.16,4.16,0,0,1-1.6-2.6c-.4-2.6,2.4-5.3,5.2-6a7.35,7.35,0,0,1,6.4,1.3c1.9,1.6,2.1,4.1,3.4,4.1a1.83,1.83,0,0,0,1.3-.8c1.2-1.5.6-4.3-.9-6A7.56,7.56,0,0,0,23.4,34a8.24,8.24,0,0,1-3.5-.4c-.3-.1-.7-.3-.7-.6,0-.5,1-1,1.1-1,2.1-1,3.7,1.1,6.6.9,1.9-.2,1.6-1.1,4.5-1.8a11.83,11.83,0,0,1,5.3-.3c1.4.3,3.5.7,4.5,2.4a6.11,6.11,0,0,1,.8,3c.1,1.5-.3,2.3,0,2.5s1.9-1.2,2.6-3a6.53,6.53,0,0,0-.9-5.9c-1-1.3-1.9-1.1-4.7-3.6-1.1-1-1.4-1.4-1.3-1.7.2-.5,1.8-.7,3.1-.2,2.8,1.1,2.3,4.5,5.1,5.7a32.6,32.6,0,0,0,3.4.5,21.62,21.62,0,0,1,4.4,1,11.22,11.22,0,0,1,3.3,2,8.12,8.12,0,0,1,2.4,3.1,6.1,6.1,0,0,1-1,6.8,4.81,4.81,0,0,1-2.3,1.7c-1.4.5-2.6,0-2.7.2s1.2,1.1,2.8,1.1a6.2,6.2,0,0,0,4.2-2,8.15,8.15,0,0,0,2.4-4.1,8.94,8.94,0,0,0-.7-6c-.5-1.1-1.7-3.9-4.3-5A5.26,5.26,0,0,1,55,27.5c-.1-.1-.7-1-.5-1.3s1.8.1,2.7.6c1.7.9,2.4,1.9,2.7,1.7s.1-1.5-.7-2.6c-.6-.8-1.3-1-3.2-2s-2.9-1.5-3.1-2.1c-.6-1.5.7-3.8,2.2-4.3a10.45,10.45,0,0,1,2.5,0l2,.1A11,11,0,0,1,64,19.1a10.38,10.38,0,0,1,3.7,3.8,11,11,0,0,1,1,4.7,8.77,8.77,0,0,1-.2,3.6c-.5,2-1.6,3.1-1.3,3.5s1.5-.2,1.5-.2c2-1,2.6-3.4,2.8-4.4a11.42,11.42,0,0,0-.4-6.6,13.82,13.82,0,0,0-4.8-6.1A27.08,27.08,0,0,0,58,12.8a40.52,40.52,0,0,0-9.7-2.4,41.57,41.57,0,0,0-12.2,0,40.36,40.36,0,0,0-14.2,5.1,45.69,45.69,0,0,0-11.1,9,37.55,37.55,0,0,0-5.7,8,42.69,42.69,0,0,0-3.6,9.8A49.6,49.6,0,0,0,.2,50.9a40.92,40.92,0,0,0,.1,7,39.4,39.4,0,0,0,1.9,8.4A42.48,42.48,0,0,0,7.3,76.8,46.91,46.91,0,0,0,15.9,86.2Z" transform="translate(0.41 0)"/><path class="cls-9" d="M27.7,64.9c1.1-.3,2.4,2.9,5.1,6.3a29.94,29.94,0,0,0,6.1,5.7A34.19,34.19,0,0,0,45,80.6a33.48,33.48,0,0,0,17.6,3.1,34.14,34.14,0,0,0,6.4-1c4.1-1.1,6.6-2.7,6.9-2.2s-1.3,2.1-1.9,2.7a31.81,31.81,0,0,1-9.5,6.4A38.16,38.16,0,0,1,55,92.2a61.3,61.3,0,0,1-8.5.9,34.71,34.71,0,0,1-8.5-.5,31.86,31.86,0,0,1-8.5-3,61.09,61.09,0,0,1-9.9-5.8,15.84,15.84,0,0,1-5.2-5.1c-.4-.7-1.1-2.1-.9-2.3.4-.3,3.2,4,8.2,7.8a41.16,41.16,0,0,0,10.4,5.4,37.66,37.66,0,0,0,7.5,2A34.41,34.41,0,0,0,46,92a43.73,43.73,0,0,0,7.2-.6A46.94,46.94,0,0,0,59.7,90c4.6-1.4,8.2-3.6,8.1-3.9s-3.1,1.4-8.2,2.3a45.28,45.28,0,0,1-8.2.6,43.76,43.76,0,0,1-10.2-1.2,45.64,45.64,0,0,1-7.1-2.4,43,43,0,0,1-5.2-2.8A47.23,47.23,0,0,1,21.8,77c-3.2-3-1.9-2.6-5.1-5.7-1-1-2.5-2.3-2.2-3.5.1-.3.3-.7.6-.7s.8,1.2.9,1.4c.6,1.8,2.4,3.6,5.5,6.5a43.17,43.17,0,0,0,9.6,7.4,44.22,44.22,0,0,0,9.8,4.1A44.82,44.82,0,0,0,53.5,88a40,40,0,0,0,9.1-1.3c1.7-.5,3.9-1.2,3.8-1.4s-3.5.6-8.1.8a38.51,38.51,0,0,1-11.2-.8,38.79,38.79,0,0,1-9.9-4,36.63,36.63,0,0,1-9-6.1,46.69,46.69,0,0,1-6.9-8.5c-.6-.9-1.2-1.8-1.7-2.7.1-.1,1.9,2.4,4.4,5.2a49.82,49.82,0,0,0,7.8,7.4,39.23,39.23,0,0,0,7.5,4.7,45.68,45.68,0,0,0,8.8,3,40.93,40.93,0,0,0,8.5.9,10.8,10.8,0,0,0,3.1-.2c0-.2-3-.3-6.2-.8a37.58,37.58,0,0,1-20-10.6c-2.8-2.9-1.8-2.9-4.4-5.4-.8-.7-2.2-2-1.8-2.8A.46.46,0,0,1,27.7,64.9Z" transform="translate(0.41 0)"/></svg>