<svg id="visual" viewBox="0 0 900 250" width="900" height="250" xmlns="http://www.w3.org/2000/svg" xmlns:xlink="http://www.w3.org/1999/xlink" version="1.1"><path d="M0 175L12.5 172.2C25 169.3 50 163.7 75 167.2C100 170.7 125 183.3 150 187.2C175 191 200 186 225 180.2C250 174.3 275 167.7 300 165.2C325 162.7 350 164.3 375 167.8C400 171.3 425 176.7 450 178.3C475 180 500 178 525 175.8C550 173.7 575 171.3 600 169C625 166.7 650 164.3 675 163.8C700 163.3 725 164.7 750 169.5C775 174.3 800 182.7 825 184.3C850 186 875 181 887.5 178.5L900 176L900 251L887.5 251C875 251 850 251 825 251C800 251 775 251 750 251C725 251 700 251 675 251C650 251 625 251 600 251C575 251 550 251 525 251C500 251 475 251 450 251C425 251 400 251 375 251C350 251 325 251 300 251C275 251 250 251 225 251C200 251 175 251 150 251C125 251 100 251 75 251C50 251 25 251 12.5 251L0 251Z" fill="#0E171B" stroke-linecap="round" stroke-linejoin="miter"></path></svg>