<svg id="visual" viewBox="0 0 900 250" width="900" height="250" xmlns="http://www.w3.org/2000/svg" xmlns:xlink="http://www.w3.org/1999/xlink" version="1.1"><path d="M0 189L16.7 183.8C33.3 178.7 66.7 168.3 100 166.7C133.3 165 166.7 172 200 169.8C233.3 167.7 266.7 156.3 300 154.3C333.3 152.3 366.7 159.7 400 167.5C433.3 175.3 466.7 183.7 500 182.5C533.3 181.3 566.7 170.7 600 170.2C633.3 169.7 666.7 179.3 700 184.2C733.3 189 766.7 189 800 183C833.3 177 866.7 165 883.3 159L900 153L900 251L883.3 251C866.7 251 833.3 251 800 251C766.7 251 733.3 251 700 251C666.7 251 633.3 251 600 251C566.7 251 533.3 251 500 251C466.7 251 433.3 251 400 251C366.7 251 333.3 251 300 251C266.7 251 233.3 251 200 251C166.7 251 133.3 251 100 251C66.7 251 33.3 251 16.7 251L0 251Z" fill="#0E1518" stroke-linecap="round" stroke-linejoin="miter"></path></svg>